HIERARCHY
ROOT Hips
{
	OFFSET 0.000000 0.000000 0.000000
	CHANNELS 6 Xposition Yposition Zposition Zrotation Yrotation Xrotation 
	JOINT LowerBack
	{
		OFFSET 0.000000 0.000000 0.000000
		CHANNELS 3 Zrotation Yrotation Xrotation
		JOINT Spine
		{
			OFFSET 0.028270 2.035590 -0.193380
			CHANNELS 3 Zrotation Yrotation Xrotation
			JOINT Spine1
			{
				OFFSET 0.056720 2.048850 -0.042750
				CHANNELS 3 Zrotation Yrotation Xrotation
				JOINT Neck
				{
					OFFSET 0.000000 0.000000 0.000000
					CHANNELS 3 Zrotation Yrotation Xrotation
					JOINT Neck1
					{
						OFFSET -0.054170 1.746240 0.172020
						CHANNELS 3 Zrotation Yrotation Xrotation
						JOINT Head
						{
							OFFSET 0.104070 1.761360 -0.123970
							CHANNELS 3 Zrotation Yrotation Xrotation
							End Site
							{
								OFFSET 0.000000 0.000000 0.000000
							}
						}
					}
				}
				JOINT LeftShoulder
				{
					OFFSET 0.000000 0.000000 0.000000
					CHANNELS 3 Zrotation Yrotation Xrotation
					JOINT LeftArm
					{
						OFFSET 3.362410 1.200890 -0.311210
						CHANNELS 3 Zrotation Yrotation Xrotation
						JOINT LeftForeArm
						{
							OFFSET 4.983000 -0.000000 -0.000000
							CHANNELS 3 Zrotation Yrotation Xrotation
							JOINT LeftHand
							{
								OFFSET 3.483560 -0.000000 -0.000000
								CHANNELS 3 Zrotation Yrotation Xrotation
								JOINT LeftFingerBase
								{
									OFFSET 0.000000 0.000000 0.000000
									CHANNELS 3 Zrotation Yrotation Xrotation
									JOINT LeftHandIndex1
									{
										OFFSET 0.715260 -0.000000 -0.000000
										CHANNELS 3 Zrotation Yrotation Xrotation
										End Site
										{
											OFFSET 0.000000 0.000000 0.000000
										}
									}
								}
								JOINT LThumb
								{
									OFFSET 0.000000 0.000000 0.000000
									CHANNELS 3 Zrotation Yrotation Xrotation
									End Site
									{
										OFFSET 0.000000 0.000000 0.000000
									}
								}
							}
						}
					}
				}
				JOINT RightShoulder
				{
					OFFSET 0.000000 0.000000 0.000000
					CHANNELS 3 Zrotation Yrotation Xrotation
					JOINT RightArm
					{
						OFFSET -3.136600 1.374050 -0.404650
						CHANNELS 3 Zrotation Yrotation Xrotation
						JOINT RightForeArm
						{
							OFFSET -5.241900 -0.000000 -0.000000
							CHANNELS 3 Zrotation Yrotation Xrotation
							JOINT RightHand
							{
								OFFSET -3.444170 -0.000000 -0.000000
								CHANNELS 3 Zrotation Yrotation Xrotation
								JOINT RightFingerBase
								{
									OFFSET 0.000000 0.000000 0.000000
									CHANNELS 3 Zrotation Yrotation Xrotation
									JOINT RightHandIndex1
									{
										OFFSET -0.622530 -0.000000 -0.000000
										CHANNELS 3 Zrotation Yrotation Xrotation
										End Site
										{
											OFFSET 0.000000 0.000000 0.000000
										}
									}
								}
								JOINT RThumb
								{
									OFFSET 0.000000 0.000000 0.000000
									CHANNELS 3 Zrotation Yrotation Xrotation
									End Site
									{
										OFFSET 0.000000 0.000000 0.000000
									}
								}
							}
						}
					}
				}
			}
		}
	}
}
}
MOTION
Frames: 15
Frame Time: 0.008333
-0.161484 16.857537 0.113297 25.028190 80.976794 27.518426 -5.358407 -0.692225 -2.162715 -1.374841 -0.392781 -2.614363 -4.504320 -0.485368 3.039985 10.715812 -13.999911 -10.312382 -1.434061 -0.075855 -0.693199 0.000000 0.000000 0.000000 -6.165838 24.564304 1.678748 -88.646292 27.124562 -4.769909 -3.839591 -18.708916 -0.022299 -9.023698 7.476329 -0.600669 -0.011626 -0.127758 -0.000000 0.000000 0.000000 0.000000 0.000000 0.000000 0.000000 11.621199 -9.441072 0.231336 43.433268 12.159556 5.418998 2.090946 44.820832 0.011056 2.195277 4.635004 0.089180 0.063549 -0.124799 -0.000000 0.000000 0.000000 0.000000 0.000000 0.000000 0.000000 
0.041636 16.843039 0.147324 25.142098 80.352528 27.375125 -5.679598 -0.824741 -1.921411 -1.439177 -0.496965 -2.582496 -4.545935 -0.586396 2.990919 10.845013 -14.042062 -10.311463 -1.467400 -0.078322 -0.694561 0.000000 0.000000 0.000000 -5.965785 24.288035 1.678430 -88.657741 26.947607 -3.802217 -3.800698 -19.219182 -0.021804 -8.978806 7.418608 -0.593266 -0.009690 -0.126900 -0.000000 0.000000 0.000000 0.000000 0.000000 0.000000 0.000000 11.874180 -9.517865 0.208978 43.997411 11.954244 5.458647 2.101436 44.924914 0.011060 2.160607 4.641396 0.087891 0.064481 -0.124207 -0.000000 0.000000 0.000000 0.000000 0.000000 0.000000 0.000000 
0.242544 16.828269 0.183177 25.094345 79.708918 27.121941 -5.966568 -0.969441 -1.712841 -1.495824 -0.617080 -2.557640 -4.590036 -0.704035 2.937639 10.961631 -14.075273 -10.309037 -1.506711 -0.081361 -0.694919 0.000000 0.000000 0.000000 -5.776429 23.977452 1.672845 -88.549129 26.715599 -2.758872 -3.767046 -19.786801 -0.021421 -8.997750 7.377418 -0.591264 -0.007901 -0.125709 -0.000000 0.000000 0.000000 0.000000 0.000000 0.000000 0.000000 12.127659 -9.586869 0.185885 44.659135 11.728830 5.526398 2.117799 44.996176 0.011094 2.139398 4.643155 0.086901 0.065574 -0.123348 -0.000000 0.000000 0.000000 0.000000 0.000000 0.000000 0.000000 
0.441334 16.813703 0.220439 24.854785 79.033404 26.727385 -6.208829 -1.120131 -1.539683 -1.543131 -0.747534 -2.540032 -4.636315 -0.832685 2.881528 11.062824 -14.100337 -10.303621 -1.551441 -0.084950 -0.693863 0.000000 0.000000 0.000000 -5.605720 23.640893 1.660984 -88.318424 26.423150 -1.686924 -3.739235 -20.383281 -0.021128 -9.067875 7.339190 -0.592762 -0.006400 -0.124152 -0.000000 0.000000 0.000000 0.000000 0.000000 0.000000 0.000000 12.376790 -9.647283 0.161774 45.413683 11.480517 5.613761 2.139884 45.027858 0.011152 2.127462 4.640537 0.086313 0.066840 -0.122264 -0.000000 0.000000 0.000000 0.000000 0.000000 0.000000 0.000000 
0.638192 16.799896 0.258709 24.419724 78.316842 26.183940 -6.400212 -1.271460 -1.402878 -1.580268 -0.883266 -2.528924 -4.684217 -0.967195 2.826787 11.149061 -14.124389 -10.296428 -1.600769 -0.088999 -0.691777 0.000000 0.000000 0.000000 -5.450472 23.295597 1.642252 -87.966337 26.053544 -0.624045 -3.717987 -20.963101 -0.020894 -9.166427 7.287059 -0.594958 -0.005426 -0.122193 -0.000000 0.000000 0.000000 0.000000 0.000000 0.000000 0.000000 12.622366 -9.705380 0.135827 46.250645 11.214200 5.718843 2.167150 45.009715 0.011222 2.114057 4.636692 0.085627 0.068338 -0.121007 -0.000000 0.000000 0.000000 0.000000 0.000000 0.000000 0.000000 
0.833292 16.787372 0.297664 23.798908 77.554508 25.494930 -6.532460 -1.418441 -1.301472 -1.606043 -1.019708 -2.524725 -4.733728 -1.102955 2.771389 11.216839 -14.143475 -10.283019 -1.654463 -0.093557 -0.687450 0.000000 0.000000 0.000000 -5.318283 22.932676 1.616328 -87.497422 25.617336 0.377948 -3.702901 -21.510487 -0.020670 -9.263902 7.206733 -0.594652 -0.005172 -0.119821 -0.000000 0.000000 0.000000 0.000000 0.000000 0.000000 0.000000 12.856877 -9.756773 0.108135 47.171474 10.911150 5.814211 2.199859 44.938022 0.011300 2.099760 4.628987 0.084842 0.070044 -0.119611 -0.000000 0.000000 0.000000 0.000000 0.000000 0.000000 0.000000 
1.026834 16.776575 0.337211 23.031923 76.747166 24.691363 -6.605812 -1.558294 -1.231650 -1.620800 -1.153870 -2.525921 -4.784322 -1.236788 2.718838 11.268644 -14.165458 -10.264713 -1.711759 -0.098532 -0.681351 0.000000 0.000000 0.000000 -5.198463 22.563102 1.583457 -86.917880 25.103846 1.290806 -3.694192 -21.985504 -0.020418 -9.326579 7.086599 -0.588541 -0.005910 -0.117048 -0.000000 0.000000 0.000000 0.000000 0.000000 0.000000 0.000000 13.083592 -9.810030 0.077821 48.166051 10.571382 5.890056 2.237360 44.804501 0.011372 2.074114 4.619982 0.083558 0.072000 -0.118115 -0.000000 0.000000 0.000000 0.000000 0.000000 0.000000 0.000000 
1.219073 16.767915 0.377211 22.152717 75.903452 23.797938 -6.619715 -1.690158 -1.187949 -1.624611 -1.284711 -2.530234 -4.835477 -1.367398 2.674425 11.309466 -14.198330 -10.245103 -1.772115 -0.103810 -0.674598 0.000000 0.000000 0.000000 -5.076235 22.207655 1.544548 -86.235220 24.495142 2.094030 -3.692132 -22.345043 -0.020102 -9.322722 6.924927 -0.574625 -0.007902 -0.113901 -0.000000 0.000000 0.000000 0.000000 0.000000 0.000000 0.000000 13.311148 -9.874149 0.043385 49.213969 10.195697 5.945784 2.278300 44.604501 0.011422 2.022662 4.616551 0.081275 0.074251 -0.116545 -0.000000 0.000000 0.000000 0.000000 0.000000 0.000000 0.000000 
1.409918 16.761663 0.418133 21.252409 75.028180 22.888730 -6.584424 -1.812508 -1.159555 -1.619850 -1.409737 -2.539050 -4.887684 -1.492201 2.623429 11.329303 -14.231881 -10.210573 -1.835163 -0.109567 -0.663462 0.000000 0.000000 0.000000 -4.969612 21.793980 1.499053 -85.455667 23.866457 2.740574 -3.694130 -22.645413 -0.019662 -9.214718 6.710906 -0.550202 -0.011131 -0.110493 -0.000000 0.000000 0.000000 0.000000 0.000000 0.000000 0.000000 13.515879 -9.942067 0.008268 50.354092 9.743586 5.896035 2.325447 44.334282 0.011465 1.974125 4.596702 0.078793 0.076613 -0.114896 -0.000000 0.000000 0.000000 0.000000 0.000000 0.000000 0.000000 
1.599735 16.757925 0.459834 20.341338 74.142601 21.966337 -6.502153 -1.928986 -1.138774 -1.606725 -1.532165 -2.546629 -4.939604 -1.613940 2.583468 11.344424 -14.290679 -10.178132 -1.900014 -0.115445 -0.652865 0.000000 0.000000 0.000000 -4.841226 21.399150 1.449035 -84.584930 23.148442 3.251300 -3.701766 -22.802654 -0.019098 -8.984933 6.461008 -0.516172 -0.015866 -0.106855 -0.000000 0.000000 0.000000 0.000000 0.000000 0.000000 0.000000 13.730203 -10.039786 -0.031457 51.527544 9.250880 5.793821 2.374920 43.989093 0.011470 1.889863 4.583910 0.075010 0.079251 -0.113189 -0.000000 0.000000 0.000000 0.000000 0.000000 0.000000 0.000000 
1.788569 16.756758 0.502631 19.466206 73.262022 21.064207 -6.380355 -2.041246 -1.115616 -1.586782 -1.652904 -2.552990 -4.991599 -1.733388 2.546197 11.350319 -14.365628 -10.141146 -1.966685 -0.121539 -0.641026 0.000000 0.000000 0.000000 -4.698515 20.985419 1.395536 -83.628578 22.388399 3.594314 -3.713551 -22.855275 -0.018381 -8.615679 6.181737 -0.473033 -0.022020 -0.103086 -0.000000 0.000000 0.000000 0.000000 0.000000 0.000000 0.000000 13.943382 -10.160635 -0.073825 52.746265 8.687609 5.583749 2.427550 43.572413 0.011444 1.787512 4.568583 0.070427 0.081998 -0.111418 -0.000000 0.000000 0.000000 0.000000 0.000000 0.000000 0.000000 
1.976496 16.757993 0.546832 18.655833 72.403771 20.201969 -6.228074 -2.152933 -1.081072 -1.561567 -1.774731 -2.555207 -5.042941 -1.853048 2.516090 11.353066 -14.470857 -10.106645 -2.034315 -0.127659 -0.629994 0.000000 0.000000 0.000000 -4.531911 20.569935 1.339350 -82.588648 21.580909 3.780147 -3.729028 -22.799283 -0.017505 -8.100290 5.883453 -0.422788 -0.029532 -0.099233 -0.000000 0.000000 0.000000 0.000000 0.000000 0.000000 0.000000 14.166722 -10.321370 -0.118881 53.988405 8.070871 5.271163 2.482396 43.081476 0.011381 1.660082 4.554040 0.064942 0.084864 -0.109566 -0.000000 0.000000 0.000000 0.000000 0.000000 0.000000 0.000000 
2.163668 16.761434 0.592659 17.922366 71.584307 19.385251 -6.051119 -2.267319 -1.029225 -1.532021 -1.900384 -2.552224 -5.093388 -1.975554 2.492545 11.354056 -14.607481 -10.076596 -2.102545 -0.133740 -0.620343 0.000000 0.000000 0.000000 -4.341658 20.151613 1.281859 -81.468485 20.741667 3.801004 -3.747714 -22.655724 -0.016475 -7.443689 5.578030 -0.367736 -0.038227 -0.095329 -0.000000 0.000000 0.000000 0.000000 0.000000 0.000000 0.000000 14.402217 -10.524848 -0.165808 55.241855 7.398680 4.843589 2.539011 42.520061 0.011284 1.512293 4.540495 0.058556 0.087770 -0.107618 -0.000000 0.000000 0.000000 0.000000 0.000000 0.000000 0.000000 
2.350213 16.766721 0.640355 17.271038 70.817448 18.616455 -5.854917 -2.387706 -0.956841 -1.498938 -2.032737 -2.543194 -5.142565 -2.103742 2.476257 11.355473 -14.778570 -10.054579 -2.170937 -0.139692 -0.613062 0.000000 0.000000 0.000000 -4.128430 19.735535 1.224403 -80.270867 19.882192 3.655285 -3.769420 -22.447067 -0.015313 -6.661446 5.275273 -0.310580 -0.047880 -0.091369 -0.000000 0.000000 0.000000 0.000000 0.000000 0.000000 0.000000 14.653792 -10.775458 -0.213842 56.490565 6.676010 4.300205 2.596855 41.893149 0.011158 1.348084 4.528868 0.051665 0.090654 -0.105553 -0.000000 0.000000 0.000000 0.000000 0.000000 0.000000 0.000000 
2.536274 16.773416 0.690181 16.699671 70.112612 17.893938 -5.644217 -2.517004 -0.863465 -1.462839 -2.174385 -2.527226 -5.189476 -2.240215 2.470296 11.360429 -14.994447 -10.046996 -2.238297 -0.145323 -0.609881 0.000000 0.000000 0.000000 -3.893973 19.335880 1.167777 -78.998390 19.005049 3.351835 -3.794208 -22.194007 -0.014053 -5.778893 4.982036 -0.253620 -0.058226 -0.087308 -0.000000 0.000000 0.000000 0.000000 0.000000 0.000000 0.000000 14.926312 -11.084853 -0.262456 57.714576 5.923570 3.661995 2.655489 41.200650 0.011009 1.166067 4.522091 0.044072 0.093531 -0.103341 -0.000000 0.000000 0.000000 0.000000 0.000000 0.000000 0.000000 
